<svg xmlns="http://www.w3.org/2000/svg" xmlns:xlink="http://www.w3.org/1999/xlink" viewBox="0 0 3100.67 1112"><defs><style>.cls-1{fill:url(#radial-gradient);}.cls-2{isolation:isolate;}.cls-3{clip-path:url(#clip-path);}.cls-4{mix-blend-mode:color-dodge;}.cls-10,.cls-11,.cls-12,.cls-13,.cls-14,.cls-15,.cls-16,.cls-17,.cls-18,.cls-19,.cls-20,.cls-21,.cls-22,.cls-23,.cls-24,.cls-25,.cls-26,.cls-27,.cls-28,.cls-29,.cls-30,.cls-31,.cls-32,.cls-33,.cls-34,.cls-35,.cls-36,.cls-37,.cls-38,.cls-39,.cls-40,.cls-41,.cls-42,.cls-43,.cls-44,.cls-45,.cls-46,.cls-47,.cls-48,.cls-49,.cls-5,.cls-50,.cls-51,.cls-52,.cls-53,.cls-54,.cls-55,.cls-56,.cls-57,.cls-58,.cls-59,.cls-6,.cls-60,.cls-61,.cls-62,.cls-63,.cls-64,.cls-65,.cls-66,.cls-67,.cls-68,.cls-69,.cls-7,.cls-70,.cls-71,.cls-72,.cls-73,.cls-74,.cls-75,.cls-76,.cls-77,.cls-78,.cls-79,.cls-8,.cls-80,.cls-81,.cls-82,.cls-83,.cls-84,.cls-85,.cls-86,.cls-87,.cls-88,.cls-89,.cls-9,.cls-90{fill:#dedede;}.cls-5{opacity:0.15;}.cls-6{opacity:0.36;}.cls-7{opacity:0.59;}.cls-8{opacity:0.65;}.cls-9{opacity:0.41;}.cls-10{opacity:0.94;}.cls-11{opacity:0.99;}.cls-12{opacity:0.19;}.cls-13{opacity:0.56;}.cls-14{opacity:0.63;}.cls-15{opacity:0.3;}.cls-16{opacity:0.61;}.cls-17{opacity:0.76;}.cls-18{opacity:0.54;}.cls-19{opacity:0.05;}.cls-20{opacity:0.92;}.cls-21{opacity:0.87;}.cls-22{opacity:0.03;}.cls-23{opacity:0.17;}.cls-24{opacity:0.74;}.cls-25{opacity:0.21;}.cls-26{opacity:0.79;}.cls-27{opacity:0.8;}.cls-28{opacity:0.9;}.cls-29{opacity:0.93;}.cls-30{opacity:0.11;}.cls-31{opacity:0.51;}.cls-32{opacity:0.26;}.cls-33{opacity:0.64;}.cls-34{opacity:0.43;}.cls-35{opacity:0.39;}.cls-36{opacity:0.08;}.cls-38{opacity:0.09;}.cls-39{opacity:0.53;}.cls-40{opacity:0.6;}.cls-41{opacity:0.42;}.cls-42{opacity:0.04;}.cls-43{opacity:0.78;}.cls-44{opacity:0.07;}.cls-45{opacity:0.67;}.cls-46{opacity:0.31;}.cls-47{opacity:0.4;}.cls-48{opacity:0.27;}.cls-49{opacity:0.48;}.cls-50{opacity:0.44;}.cls-51{opacity:0.29;}.cls-52{opacity:0.88;}.cls-53{opacity:0.18;}.cls-54{opacity:0.32;}.cls-55{opacity:0.01;}.cls-56{opacity:0.85;}.cls-57{opacity:0.13;}.cls-58{opacity:0.52;}.cls-59{opacity:0.81;}.cls-60{opacity:0.84;}.cls-61{opacity:0.95;}.cls-62{opacity:0.69;}.cls-63{opacity:0;}.cls-64{opacity:0.16;}.cls-65{opacity:0.86;}.cls-66{opacity:0.82;}.cls-67{opacity:0.5;}.cls-68{opacity:0.77;}.cls-69{opacity:0.37;}.cls-70{opacity:0.66;}.cls-71{opacity:0.55;}.cls-72{opacity:0.58;}.cls-73{opacity:0.12;}.cls-74{opacity:0.46;}.cls-75{opacity:0.22;}.cls-76{opacity:0.49;}.cls-77{opacity:0.91;}.cls-78{opacity:0.2;}.cls-79{opacity:0.97;}.cls-80{opacity:0.7;}.cls-81{opacity:0.24;}.cls-82{opacity:0.33;}.cls-83{opacity:0.14;}.cls-84{opacity:0.02;}.cls-85{opacity:0.89;}.cls-86{opacity:0.35;}.cls-87{opacity:0.1;}.cls-88{opacity:0.28;}.cls-89{opacity:0.38;}.cls-90{opacity:0.06;}.cls-91{fill:#b3b3b3;}.cls-108,.cls-113,.cls-114,.cls-91,.cls-92,.cls-93,.cls-95,.cls-96,.cls-97{stroke:#662d91;}.cls-108,.cls-109,.cls-110,.cls-112,.cls-113,.cls-114,.cls-91,.cls-92,.cls-93,.cls-95,.cls-96,.cls-97{stroke-miterlimit:10;}.cls-91,.cls-92,.cls-93{stroke-width:0.41px;}.cls-106,.cls-92{fill:#e2e0e7;}.cls-108,.cls-110,.cls-112,.cls-93,.cls-95{fill:none;}.cls-94{fill:#662d91;}.cls-95,.cls-96,.cls-97{stroke-width:0.46px;}.cls-107,.cls-96{fill:#68f4b9;}.cls-97{fill:#5c0cfb;}.cls-98{fill:#f35790;}.cls-99{fill:#f578a6;}.cls-100{fill:#d44c6e;}.cls-101{fill:#8991b1;}.cls-102{fill:#62678e;}.cls-103{fill:#767d99;}.cls-104{fill:#61678e;}.cls-105{fill:#54597b;}.cls-108{stroke-width:0.24px;}.cls-109{fill:#0e0133;}.cls-109,.cls-110,.cls-112{stroke:#0a505d;stroke-width:0.75px;}.cls-111{fill:#0a505d;}.cls-112{stroke-dasharray:7;}.cls-113,.cls-114{fill:#fff;}.cls-113{stroke-width:0.34px;}.cls-114{stroke-width:0.77px;}.cls-115{fill:#18083f;}.cls-116{fill:#11ca7a;}.cls-117{fill:#25c986;}.cls-118{fill:#252428;}.cls-119{fill:#252427;}.cls-120{fill:#fcfcfc;}.cls-121{fill:#fafcfb;}.cls-122{fill:#e9eee8;}</style><radialGradient id="radial-gradient" cx="-206.86" cy="640.97" r="2139.61" gradientTransform="scale(1.54 1)" gradientUnits="userSpaceOnUse"><stop offset="0.02" stop-color="#004463"/><stop offset="0.11" stop-color="#003249"/><stop offset="0.24" stop-color="#00202e"/><stop offset="0.37" stop-color="#00121a"/><stop offset="0.53" stop-color="#00080b"/><stop offset="0.71" stop-color="#000203"/><stop offset="1"/></radialGradient><clipPath id="clip-path" transform="translate(68.62)"><rect class="cls-1" width="3000" height="1112"/></clipPath></defs><g class="cls-2"><g id="Layer_1" data-name="Layer 1"><rect class="cls-1" x="68.62" width="3000" height="1112"/><g class="cls-3"><g class="cls-4"><rect class="cls-5" y="634.78" width="63.79" height="41.38"/><rect class="cls-6" x="86.71" y="634.78" width="63.79" height="41.38"/><rect class="cls-7" x="173.42" y="634.78" width="63.79" height="41.38"/><rect class="cls-8" x="260.13" y="634.78" width="63.79" height="41.38"/><rect class="cls-9" x="346.85" y="634.78" width="63.79" height="41.38"/><rect class="cls-10" x="433.56" y="634.78" width="63.79" height="41.38"/><rect class="cls-11" x="520.27" y="634.78" width="63.79" height="41.38"/><rect class="cls-12" x="606.98" y="634.78" width="63.79" height="41.38"/><rect class="cls-13" x="693.69" y="634.78" width="63.79" height="41.38"/><rect class="cls-14" x="780.4" y="634.78" width="63.79" height="41.38"/><rect class="cls-15" x="867.11" y="634.78" width="63.79" height="41.38"/><rect class="cls-16" x="953.82" y="634.78" width="63.79" height="41.38"/><rect class="cls-17" x="1040.54" y="634.78" width="63.79" height="41.38"/><rect class="cls-18" x="1127.25" y="634.78" width="63.79" height="41.38"/><rect class="cls-19" x="1213.96" y="634.78" width="63.79" height="41.38"/><rect class="cls-20" x="1300.67" y="634.78" width="63.79" height="41.38"/><rect class="cls-21" x="1387.38" y="634.78" width="63.79" height="41.38"/><rect class="cls-22" x="1474.09" y="634.78" width="63.79" height="41.38"/><rect class="cls-23" x="1562.8" y="634.78" width="63.79" height="41.38"/><rect class="cls-24" x="1649.51" y="634.78" width="63.79" height="41.38"/><rect class="cls-25" x="1736.22" y="634.78" width="63.79" height="41.38"/><rect class="cls-26" x="1822.93" y="634.78" width="63.79" height="41.38"/><rect class="cls-27" x="1909.64" y="634.78" width="63.79" height="41.38"/><rect class="cls-14" x="1996.35" y="634.78" width="63.79" height="41.38"/><rect class="cls-28" x="2083.06" y="634.78" width="63.79" height="41.38"/><rect class="cls-29" x="2169.78" y="634.78" width="63.79" height="41.38"/><rect class="cls-11" x="2256.49" y="634.78" width="63.79" height="41.38"/><rect class="cls-5" x="2343.2" y="634.78" width="63.79" height="41.38"/><rect class="cls-16" x="2429.91" y="634.78" width="63.79" height="41.38"/><rect class="cls-30" x="2516.62" y="634.78" width="63.79" height="41.38"/><rect class="cls-31" x="2603.33" y="634.78" width="63.79" height="41.38"/><rect class="cls-18" x="2690.04" y="634.78" width="63.79" height="41.38"/><rect class="cls-5" x="2776.75" y="634.78" width="63.79" height="41.38"/><rect class="cls-16" x="2863.46" y="634.78" width="63.79" height="41.38"/><rect class="cls-32" x="2950.18" y="634.78" width="63.79" height="41.38"/><rect class="cls-13" x="3036.89" y="634.78" width="63.79" height="41.38"/><rect class="cls-33" y="687.15" width="63.79" height="41.38"/><rect class="cls-12" x="86.71" y="687.15" width="63.79" height="41.38"/><rect class="cls-34" x="173.42" y="687.15" width="63.79" height="41.38"/><rect class="cls-35" x="260.13" y="687.15" width="63.79" height="41.38"/><rect class="cls-8" x="346.85" y="687.15" width="63.79" height="41.38"/><rect class="cls-36" x="433.56" y="687.15" width="63.79" height="41.38"/><rect class="cls-37" x="520.27" y="687.15" width="63.79" height="41.38"/><rect class="cls-38" x="606.98" y="687.15" width="63.79" height="41.38"/><rect class="cls-25" x="693.69" y="687.15" width="63.79" height="41.38"/><rect class="cls-39" x="780.4" y="687.15" width="63.79" height="41.38"/><rect class="cls-40" x="867.11" y="687.15" width="63.79" height="41.38"/><rect class="cls-7" x="953.82" y="687.15" width="63.79" height="41.38"/><rect class="cls-20" x="1040.54" y="687.15" width="63.79" height="41.38"/><rect class="cls-41" x="1127.25" y="687.15" width="63.79" height="41.38"/><rect class="cls-39" x="1213.96" y="687.15" width="63.79" height="41.38"/><rect class="cls-14" x="1300.67" y="687.15" width="63.79" height="41.38"/><rect class="cls-42" x="1387.38" y="687.15" width="63.79" height="41.38"/><rect class="cls-39" x="1474.09" y="687.15" width="63.79" height="41.38"/><rect class="cls-24" x="1562.8" y="687.15" width="63.79" height="41.38"/><rect class="cls-43" x="1649.51" y="687.15" width="63.79" height="41.38"/><rect class="cls-44" x="1736.22" y="687.15" width="63.79" height="41.38"/><rect class="cls-45" x="1822.93" y="687.15" width="63.79" height="41.38"/><rect class="cls-7" x="1909.64" y="687.15" width="63.79" height="41.38"/><rect class="cls-43" x="1996.35" y="687.15" width="63.79" height="41.38"/><rect class="cls-46" x="2083.06" y="687.15" width="63.79" height="41.38"/><rect class="cls-6" x="2169.78" y="687.15" width="63.79" height="41.38"/><rect class="cls-47" x="2256.49" y="687.15" width="63.79" height="41.38"/><rect class="cls-48" x="2343.2" y="687.15" width="63.79" height="41.38"/><rect class="cls-30" x="2429.91" y="687.15" width="63.79" height="41.38"/><rect class="cls-49" x="2516.62" y="687.15" width="63.79" height="41.38"/><rect class="cls-9" x="2603.33" y="687.15" width="63.79" height="41.38"/><rect class="cls-39" x="2690.04" y="687.15" width="63.79" height="41.38"/><rect class="cls-50" x="2776.75" y="687.15" width="63.79" height="41.38"/><rect class="cls-51" x="2863.46" y="687.15" width="63.79" height="41.38"/><rect class="cls-5" x="2950.18" y="687.15" width="63.79" height="41.38"/><rect class="cls-52" x="3036.89" y="687.15" width="63.79" height="41.38"/><rect class="cls-53" y="739.52" width="63.79" height="41.38"/><rect class="cls-54" x="86.71" y="739.52" width="63.79" height="41.38"/><rect class="cls-37" x="173.42" y="739.52" width="63.79" height="41.38"/><rect class="cls-31" x="260.13" y="739.52" width="63.79" height="41.38"/><rect class="cls-55" x="346.85" y="739.52" width="63.79" height="41.38"/><rect class="cls-24" x="433.56" y="739.52" width="63.79" height="41.38"/><rect class="cls-56" x="520.27" y="739.52" width="63.79" height="41.38"/><rect class="cls-39" x="606.98" y="739.52" width="63.79" height="41.38"/><rect class="cls-57" x="693.69" y="739.52" width="63.79" height="41.38"/><rect class="cls-54" x="780.4" y="739.52" width="63.79" height="41.38"/><rect class="cls-58" x="867.11" y="739.52" width="63.79" height="41.38"/><rect class="cls-59" x="953.82" y="739.52" width="63.79" height="41.38"/><rect class="cls-60" x="1040.54" y="739.52" width="63.79" height="41.38"/><rect class="cls-61" x="1127.25" y="739.52" width="63.79" height="41.38"/><rect class="cls-57" x="1213.96" y="739.52" width="63.79" height="41.38"/><rect class="cls-50" x="1300.67" y="739.52" width="63.79" height="41.38"/><rect class="cls-36" x="1387.38" y="739.52" width="63.79" height="41.38"/><rect class="cls-62" x="1474.09" y="739.52" width="63.79" height="41.38"/><rect class="cls-59" x="1562.8" y="739.52" width="63.79" height="41.38"/><rect class="cls-58" x="1649.51" y="739.52" width="63.79" height="41.38"/><rect class="cls-38" x="1736.22" y="739.52" width="63.79" height="41.38"/><rect class="cls-25" x="1822.93" y="739.52" width="63.79" height="41.38"/><rect class="cls-63" x="1909.64" y="739.52" width="63.79" height="41.38"/><rect class="cls-20" x="1996.35" y="739.52" width="63.79" height="41.38"/><rect class="cls-64" x="2083.06" y="739.52" width="63.79" height="41.38"/><rect class="cls-65" x="2169.78" y="739.52" width="63.79" height="41.38"/><rect class="cls-37" x="2256.49" y="739.52" width="63.79" height="41.38"/><rect class="cls-66" x="2343.2" y="739.52" width="63.79" height="41.38"/><rect class="cls-33" x="2429.91" y="739.52" width="63.79" height="41.38"/><rect class="cls-65" x="2516.62" y="739.52" width="63.79" height="41.38"/><rect class="cls-67" x="2603.33" y="739.52" width="63.79" height="41.38"/><rect class="cls-68" x="2690.04" y="739.52" width="63.79" height="41.38"/><rect class="cls-69" x="2776.75" y="739.52" width="63.79" height="41.38"/><rect class="cls-12" x="2863.46" y="739.52" width="63.79" height="41.38"/><rect class="cls-51" x="2950.18" y="739.52" width="63.79" height="41.38"/><rect class="cls-68" x="3036.89" y="739.52" width="63.79" height="41.38"/><rect class="cls-34" y="791.88" width="63.79" height="41.38"/><rect class="cls-70" x="86.71" y="791.88" width="63.79" height="41.38"/><rect class="cls-71" x="173.42" y="791.88" width="63.79" height="41.38"/><rect class="cls-34" x="260.13" y="791.88" width="63.79" height="41.38"/><rect class="cls-13" x="346.85" y="791.88" width="63.79" height="41.38"/><rect class="cls-46" x="433.56" y="791.88" width="63.79" height="41.38"/><rect class="cls-52" x="520.27" y="791.88" width="63.79" height="41.38"/><rect class="cls-14" x="606.98" y="791.88" width="63.79" height="41.38"/><rect class="cls-42" x="693.69" y="791.88" width="63.79" height="41.38"/><rect class="cls-30" x="780.4" y="791.88" width="63.79" height="41.38"/><rect class="cls-65" x="867.11" y="791.88" width="63.79" height="41.38"/><rect class="cls-72" x="953.82" y="791.88" width="63.79" height="41.38"/><rect class="cls-58" x="1040.54" y="791.88" width="63.79" height="41.38"/><rect class="cls-22" x="1127.25" y="791.88" width="63.79" height="41.38"/><rect class="cls-65" x="1213.96" y="791.88" width="63.79" height="41.38"/><rect class="cls-52" x="1300.67" y="791.88" width="63.79" height="41.38"/><rect class="cls-6" x="1387.38" y="791.88" width="63.79" height="41.38"/><rect class="cls-73" x="1474.09" y="791.88" width="63.79" height="41.38"/><rect class="cls-44" x="1562.8" y="791.88" width="63.79" height="41.38"/><rect class="cls-74" x="1649.51" y="791.88" width="63.79" height="41.38"/><rect class="cls-75" x="1736.22" y="791.88" width="63.79" height="41.38"/><rect class="cls-55" x="1822.93" y="791.88" width="63.79" height="41.38"/><rect class="cls-76" x="1909.64" y="791.88" width="63.79" height="41.38"/><rect class="cls-65" x="1996.35" y="791.88" width="63.79" height="41.38"/><rect class="cls-6" x="2083.06" y="791.88" width="63.79" height="41.38"/><rect class="cls-50" x="2169.78" y="791.88" width="63.79" height="41.38"/><rect class="cls-77" x="2256.49" y="791.88" width="63.79" height="41.38"/><rect class="cls-65" x="2343.2" y="791.88" width="63.79" height="41.38"/><rect class="cls-78" x="2429.91" y="791.88" width="63.79" height="41.38"/><rect class="cls-61" x="2516.62" y="791.88" width="63.79" height="41.38"/><rect class="cls-69" x="2603.33" y="791.88" width="63.79" height="41.38"/><rect class="cls-79" x="2690.04" y="791.88" width="63.79" height="41.38"/><rect class="cls-22" x="2776.75" y="791.88" width="63.79" height="41.38"/><rect class="cls-80" x="2863.46" y="791.88" width="63.79" height="41.38"/><rect class="cls-76" x="2950.18" y="791.88" width="63.79" height="41.38"/><rect class="cls-40" x="3036.89" y="791.88" width="63.79" height="41.38"/><rect class="cls-37" y="844.25" width="63.79" height="41.38"/><rect class="cls-69" x="86.71" y="844.25" width="63.79" height="41.38"/><rect class="cls-56" x="173.42" y="844.25" width="63.79" height="41.38"/><rect class="cls-72" x="260.13" y="844.25" width="63.79" height="41.38"/><rect class="cls-34" x="346.85" y="844.25" width="63.79" height="41.38"/><rect class="cls-42" x="433.56" y="844.25" width="63.79" height="41.38"/><rect class="cls-56" x="520.27" y="844.25" width="63.79" height="41.38"/><rect class="cls-26" x="606.98" y="844.25" width="63.79" height="41.38"/><rect class="cls-17" x="693.69" y="844.25" width="63.79" height="41.38"/><rect class="cls-64" x="780.4" y="844.25" width="63.79" height="41.38"/><rect class="cls-39" x="867.11" y="844.25" width="63.79" height="41.38"/><rect class="cls-39" x="953.82" y="844.25" width="63.79" height="41.38"/><rect class="cls-66" x="1040.54" y="844.25" width="63.79" height="41.38"/><rect class="cls-41" x="1127.25" y="844.25" width="63.79" height="41.38"/><rect class="cls-9" x="1213.96" y="844.25" width="63.79" height="41.38"/><rect class="cls-13" x="1300.67" y="844.25" width="63.79" height="41.38"/><rect class="cls-63" x="1387.38" y="844.25" width="63.79" height="41.38"/><rect class="cls-33" x="1474.09" y="844.25" width="63.79" height="41.38"/><rect class="cls-61" x="1562.8" y="844.25" width="63.79" height="41.38"/><rect class="cls-78" x="1649.51" y="844.25" width="63.79" height="41.38"/><rect class="cls-11" x="1736.22" y="844.25" width="63.79" height="41.38"/><rect class="cls-67" x="1822.93" y="844.25" width="63.79" height="41.38"/><rect class="cls-68" x="1909.64" y="844.25" width="63.79" height="41.38"/><rect class="cls-72" x="1996.35" y="844.25" width="63.79" height="41.38"/><rect class="cls-74" x="2083.06" y="844.25" width="63.79" height="41.38"/><rect class="cls-81" x="2169.78" y="844.25" width="63.79" height="41.38"/><rect class="cls-32" x="2256.49" y="844.25" width="63.79" height="41.38"/><rect class="cls-82" x="2343.2" y="844.25" width="63.79" height="41.38"/><rect class="cls-8" x="2429.91" y="844.25" width="63.79" height="41.38"/><rect class="cls-83" x="2516.62" y="844.25" width="63.79" height="41.38"/><rect class="cls-76" x="2603.33" y="844.25" width="63.79" height="41.38"/><rect class="cls-84" x="2690.04" y="844.25" width="63.79" height="41.38"/><rect class="cls-42" x="2776.75" y="844.25" width="63.79" height="41.38"/><rect class="cls-85" x="2863.46" y="844.25" width="63.79" height="41.38"/><rect class="cls-75" x="2950.18" y="844.25" width="63.79" height="41.38"/><rect class="cls-82" x="3036.89" y="844.25" width="63.79" height="41.38"/><rect class="cls-84" y="896.62" width="63.79" height="41.38"/><rect class="cls-14" x="86.71" y="896.62" width="63.79" height="41.38"/><rect class="cls-84" x="173.42" y="896.62" width="63.79" height="41.38"/><rect class="cls-86" x="260.13" y="896.62" width="63.79" height="41.38"/><rect class="cls-79" x="346.85" y="896.62" width="63.79" height="41.38"/><rect class="cls-61" x="433.56" y="896.62" width="63.79" height="41.38"/><rect class="cls-87" x="520.27" y="896.62" width="63.79" height="41.38"/><rect class="cls-88" x="606.98" y="896.62" width="63.79" height="41.38"/><rect class="cls-50" x="693.69" y="896.62" width="63.79" height="41.38"/><rect class="cls-89" x="780.4" y="896.62" width="63.79" height="41.38"/><rect class="cls-56" x="867.11" y="896.62" width="63.79" height="41.38"/><rect class="cls-39" x="953.82" y="896.62" width="63.79" height="41.38"/><rect class="cls-79" x="1040.54" y="896.62" width="63.79" height="41.38"/><rect class="cls-66" x="1127.25" y="896.62" width="63.79" height="41.38"/><rect class="cls-85" x="1213.96" y="896.62" width="63.79" height="41.38"/><rect class="cls-16" x="1300.67" y="896.62" width="63.79" height="41.38"/><rect class="cls-53" x="1387.38" y="896.62" width="63.79" height="41.38"/><rect class="cls-89" x="1474.09" y="896.62" width="63.79" height="41.38"/><rect class="cls-72" x="1562.8" y="896.62" width="63.79" height="41.38"/><rect class="cls-84" x="1649.51" y="896.62" width="63.79" height="41.38"/><rect class="cls-45" x="1736.22" y="896.62" width="63.79" height="41.38"/><rect class="cls-83" x="1822.93" y="896.62" width="63.79" height="41.38"/><rect class="cls-39" x="1909.64" y="896.62" width="63.79" height="41.38"/><rect class="cls-48" x="1996.35" y="896.62" width="63.79" height="41.38"/><rect class="cls-47" x="2083.06" y="896.62" width="63.79" height="41.38"/><rect class="cls-75" x="2169.78" y="896.62" width="63.79" height="41.38"/><rect class="cls-35" x="2256.49" y="896.62" width="63.79" height="41.38"/><rect class="cls-82" x="2343.2" y="896.62" width="63.79" height="41.38"/><rect class="cls-90" x="2429.91" y="896.62" width="63.79" height="41.38"/><rect class="cls-70" x="2516.62" y="896.62" width="63.79" height="41.38"/><rect class="cls-54" x="2603.33" y="896.62" width="63.79" height="41.38"/><rect class="cls-45" x="2690.04" y="896.62" width="63.79" height="41.38"/><rect class="cls-57" x="2776.75" y="896.62" width="63.79" height="41.38"/><rect class="cls-80" x="2863.46" y="896.62" width="63.79" height="41.38"/><rect class="cls-35" x="2950.18" y="896.62" width="63.79" height="41.38"/><rect class="cls-23" x="3036.89" y="896.62" width="63.79" height="41.38"/></g></g><g id="Rocket"><path class="cls-91" d="M1294.78,366.53s1.61,2.46,3.57,2.29c0,0-3.64,8.48,6.35,8.64,0,0-.19,4.61,3.54,5.34a5.25,5.25,0,0,0,6.15-4.84,6.94,6.94,0,0,0-1.75-4.89s3.22-3.15-.65-6.82a5.61,5.61,0,0,0-1.38-7l-5.17-4.88-12.65,8.06Z" transform="translate(68.62)"/><path class="cls-91" d="M1311.08,354.43s-1.87,4.64,3.42,5.6c0,0,0,2.71,3.75,3,0,0,.4,4.12,5.41,3s1-6.65,1-6.65,1.72-3.89-1-6.41S1316.81,348,1311.08,354.43Z" transform="translate(68.62)"/><path class="cls-91" d="M1323.68,349.89s2.23,10.59,10,11.19c0,0,2.19,5,6.09,4.48s6.69-5.52,2.27-8.88c0,0,2.82-7.76-4.93-11.13,0,0,1.69-4.44-1.08-6.12C1336,339.43,1320.33,341.52,1323.68,349.89Z" transform="translate(68.62)"/><path class="cls-92" d="M1251.9,290.61a7.24,7.24,0,0,1-3.84,0s-52.89-81.95-35.46-118.51c0,0,33.37-7.58,83.89,91a9.48,9.48,0,0,1-2.24,3.32" transform="translate(68.62)"/><path class="cls-93" d="M1248.06,290.59s13.42-23.8,48.43-27.48" transform="translate(68.62)"/><path class="cls-93" d="M1209.1,188.29s9.58-9.56,20.14-11.69" transform="translate(68.62)"/><path class="cls-93" d="M1210.24,203s11.85-14.22,30.68-18.27" transform="translate(68.62)"/><path class="cls-93" d="M1214.62,220.92s16-19.22,39.69-23" transform="translate(68.62)"/><circle class="cls-94" cx="1289.25" cy="223.23" r="1.67"/><circle class="cls-94" cx="1299.85" cy="216.07" r="1.67"/><circle class="cls-94" cx="1311.55" cy="209.47" r="1.67"/><circle class="cls-94" cx="1322.69" cy="204.54" r="1.67"/><circle class="cls-95" cx="1321.06" cy="244.24" r="21.38"/><path class="cls-96" d="M1292,263.64l8.81,13.93c-15,2.69-42.35,24.19-42.35,24.19l-8.17-14.47S1265.91,268.48,1292,263.64Z" transform="translate(68.62)"/><circle class="cls-97" cx="1321.06" cy="244.24" r="15.27"/><line class="cls-95" x1="1331.2" y1="298.67" x2="1322.74" y2="283.36"/><line class="cls-95" x1="1336.2" y1="295.07" x2="1327.04" y2="278.83"/><rect class="cls-92" x="1280.05" y="328.48" width="40.54" height="4.17" transform="translate(85.86 722.77) rotate(-31.26)"/><rect class="cls-92" x="1282.21" y="332.04" width="40.54" height="4.17" transform="translate(84.33 724.41) rotate(-31.26)"/><rect class="cls-92" x="1284.37" y="335.6" width="40.54" height="4.17" transform="translate(82.79 726.04) rotate(-31.26)"/><rect class="cls-92" x="1286.53" y="339.16" width="40.54" height="4.17" transform="translate(81.26 727.68) rotate(-31.26)"/><line class="cls-95" x1="1341.46" y1="291.46" x2="1332.43" y2="275.55"/><line class="cls-95" x1="1347.39" y1="287.67" x2="1338.71" y2="271.65"/><line class="cls-95" x1="1353.54" y1="284.07" x2="1345.02" y2="268.5"/><line class="cls-95" x1="1359.33" y1="281.1" x2="1351" y2="266.17"/><line class="cls-95" x1="1365.01" y1="278.77" x2="1356.88" y2="264.45"/><circle class="cls-94" cx="1316.96" cy="280.87" r="1.39"/><circle class="cls-94" cx="1325.34" cy="273.15" r="1.39"/><circle class="cls-94" cx="1335.92" cy="267.1" r="1.39"/><circle class="cls-94" cx="1344.44" cy="262.68" r="1.39"/><circle class="cls-94" cx="1355.41" cy="258.88" r="1.39"/><path class="cls-92" d="M1256.36,305c2.16-3.09,7.76-9.27,21.43-16.7,0,0,12.94-9,25.54-10.48a3.77,3.77,0,0,1,3.7,1.86l28,48.52a1.18,1.18,0,0,1-1,1.78c-3.75,0-11.76.48-16.68,3.46a1.57,1.57,0,0,1-2.15-.52l-2.87-4.66a3.44,3.44,0,0,0-4.65-1.18l-11.24,6.43a3.41,3.41,0,0,0-1.15,4.83l2.58,3.92a1.56,1.56,0,0,1-.52,2.21c-3,1.77-10,6.42-12.22,13a1.24,1.24,0,0,1-2.25.18L1256.14,309A3.79,3.79,0,0,1,1256.36,305Z" transform="translate(68.62)"/><circle class="cls-94" cx="1371.94" cy="282.31" r="1.39"/><path class="cls-92" d="M1296.11,333.7l14,24.14s4-7.68,12.14-5.84L1308,326.87A12.48,12.48,0,0,0,1296.11,333.7Z" transform="translate(68.62)"/><circle class="cls-94" cx="1358.58" cy="287.23" r="1.39"/><circle class="cls-94" cx="1349.66" cy="292.17" r="1.39"/><circle class="cls-94" cx="1339.63" cy="298.22" r="1.39"/><circle class="cls-94" cx="1331.26" cy="305.4" r="1.39"/><path class="cls-98" d="M1284.93,297.72v0l0,0h0l1.3.8,11.64,7.21.1.07-.42,0-2.41.11-2.69.13-2.71.12-.48.05v0q-2.13-4.17-4.27-8.32A.39.39,0,0,0,1284.93,297.72Z" transform="translate(68.62)"/><path class="cls-99" d="M1284.93,297.72a.39.39,0,0,1,.08.1q2.15,4.15,4.27,8.32v0h0l0,0-.08.07-2.13,2.69-2.92,3.69c-.08.1-.17.19-.25.28a.65.65,0,0,1,0-.14c.07-1.14.15-2.29.23-3.43s.17-2.49.26-3.74.19-2.77.28-4.15c.08-1.2.17-2.4.25-3.6C1284.92,297.82,1284.93,297.77,1284.93,297.72Z" transform="translate(68.62)"/><path class="cls-100" d="M1289.29,306.17l.48-.05,2.71-.12,2.69-.13,2.41-.11.42,0a.61.61,0,0,1,0,.13l-1.74,2.75-3,4.83a.55.55,0,0,1-.1.11l-3.78-7.36v0Z" transform="translate(68.62)"/><path class="cls-98" d="M1289.3,306.19l3.78,7.36-2.43-.14L1284,313a.74.74,0,0,1-.14,0l0,0h0c.08-.09.17-.18.25-.28l2.92-3.69,2.13-2.69.08-.07Z" transform="translate(68.62)"/><path class="cls-98" d="M1298.71,307.18c-.1.75-.21,1.5-.32,2.25q-.8,5.55-1.6,11.1l0,.16-.07,0a1,1,0,0,0-.06-.18c-.91-1.79-1.83-3.57-2.75-5.36a2.12,2.12,0,0,0-.11-.21.48.48,0,0,0,.09-.11q2.37-3.75,4.75-7.51l.07-.1Z" transform="translate(68.62)"/><path class="cls-99" d="M1293.77,314.9a2.12,2.12,0,0,1,.11.21c.92,1.79,1.84,3.57,2.75,5.36a1,1,0,0,1,.06.18l-1.16-.6-1.54-.8-1.3-.68-2.71-1.4L1287.7,316l-2.39-1.25-.65-.34v0l.54,0,2.12.12,2.76.17,2.75.16Z" transform="translate(68.62)"/><path class="cls-101" d="M1284.66,314.39l0,0h0Z" transform="translate(68.62)"/><path class="cls-102" d="M1284.94,297.67l0,0h0Z" transform="translate(68.62)"/><path class="cls-103" d="M1284.94,297.67h0l0,0Z" transform="translate(68.62)"/><path class="cls-101" d="M1283.91,312.93l0,0Z" transform="translate(68.62)"/><path class="cls-104" d="M1298.68,307.18l0,0v0Z" transform="translate(68.62)"/><path class="cls-105" d="M1289.3,306.19h0l0,0Z" transform="translate(68.62)"/><path class="cls-106" d="M1285.06,356.33c4-11.31,12-12.53,15.21-12.53a10.65,10.65,0,0,1,1.18.06l9.55,15.78a7.11,7.11,0,0,0-4.35-1.3,17,17,0,0,0-6.94,1.8c-5.49,2.71-5.84,9.18-5.78,11.53Z" transform="translate(68.62)"/><path class="cls-94" d="M1300.27,344c.49,0,.85,0,1.06.05l9,14.95a7.69,7.69,0,0,0-3.72-.86,17.13,17.13,0,0,0-7,1.82c-5.08,2.5-5.85,8.14-5.91,11l-8.44-14.61c3.93-11.1,11.79-12.3,15-12.3m0-.41c-3.18,0-11.41,1.18-15.44,12.76l9.35,16.16s-1.06-8.89,5.63-12.19a16.91,16.91,0,0,1,6.84-1.78A6.42,6.42,0,0,1,1312,361l-10.45-17.28a8.75,8.75,0,0,0-1.3-.08Z" transform="translate(68.62)"/><path class="cls-106" d="M1314.32,336.69c.39-.88,4-8.26,14.14-8.26a25.63,25.63,0,0,1,4.94.52l8.67,15.46a15.06,15.06,0,0,0-7.63-2.44,9.46,9.46,0,0,0-5.24,1.54c-.07,0-6.74,4.22-6.17,9.45Z" transform="translate(68.62)"/><path class="cls-94" d="M1328.46,328.64h0a24.93,24.93,0,0,1,4.81.49l8.24,14.7a14.67,14.67,0,0,0-7.07-2.07,9.6,9.6,0,0,0-5.34,1.57c-.29.18-6.16,3.85-6.32,8.75l-8.24-15.4c.54-1.16,4.16-8,13.92-8m0-.41c-11,0-14.37,8.47-14.37,8.47l9.53,17.8c-2.35-5.88,5.69-10.82,5.69-10.82a9.2,9.2,0,0,1,5.13-1.51,15.22,15.22,0,0,1,8.22,2.89l-9.13-16.29a25.86,25.86,0,0,0-5.07-.54Z" transform="translate(68.62)"/><path class="cls-93" d="M1287,359.14s3.44-13,16.18-12.68" transform="translate(68.62)"/><path class="cls-93" d="M1288.69,361.92a17.76,17.76,0,0,1,16.18-12.68" transform="translate(68.62)"/><path class="cls-93" d="M1290.48,364.88s3.82-12.92,16.59-11.18" transform="translate(68.62)"/><path class="cls-93" d="M1335.12,332.09s-12.9-3.66-19.16,7.45" transform="translate(68.62)"/><path class="cls-93" d="M1336.68,334.93a17.74,17.74,0,0,0-19.16,7.45" transform="translate(68.62)"/><path class="cls-93" d="M1338.31,338s-13.06-3.3-18.08,8.57" transform="translate(68.62)"/><path class="cls-93" d="M1297.36,335.86s4.93-7,12.11-6.47" transform="translate(68.62)"/><path class="cls-93" d="M1299.11,338.33s4.93-7,12.11-6.47" transform="translate(68.62)"/><path class="cls-93" d="M1300.76,341.11s4.93-6.95,12.11-6.46" transform="translate(68.62)"/><path class="cls-93" d="M1302.41,343.9s4.93-6.95,12.11-6.47" transform="translate(68.62)"/><path class="cls-93" d="M1304.06,347.24s4.93-6.95,12.1-6.47" transform="translate(68.62)"/><path class="cls-93" d="M1306.26,350.59s4.93-7,12.1-6.47" transform="translate(68.62)"/><path class="cls-93" d="M1307.9,353.93s4.93-6.95,12.11-6.47" transform="translate(68.62)"/><path class="cls-107" d="M1267.77,360.52c-14.54-23.9-6.06-37-4.59-39L1277,346.7C1267.5,351,1267.33,357.67,1267.77,360.52Z" transform="translate(68.62)"/><path class="cls-94" d="M1263.16,322l13.56,24.64c-8.45,3.92-9.48,9.68-9.28,12.92-7.57-12.8-8.37-22.28-7.65-28.08a21.16,21.16,0,0,1,3.37-9.48m.06-.83s-12,13.58,5.08,40.68c0,0-3.52-9.43,9.06-15l-14.14-25.68Z" transform="translate(68.62)"/><path class="cls-108" d="M1268.53,330.7s-8,3.64-4.44,22.12" transform="translate(68.62)"/><path class="cls-107" d="M1313.3,290.07a11,11,0,0,1,1.39-.07c5.17,0,18.29,2.37,29.67,24a11,11,0,0,0-7.1-2.55c-3,0-6.2,1.16-9.5,3.43Z" transform="translate(68.62)"/><path class="cls-94" d="M1314.69,290.22h0c5.06,0,17.77,2.3,29,23a11.22,11.22,0,0,0-6.41-2,16.92,16.92,0,0,0-9.42,3.34l-14.16-24.31c.26,0,.6,0,1,0m0-.45a10.35,10.35,0,0,0-1.75.12l14.75,25.33c3.77-2.65,7-3.53,9.57-3.53a10.62,10.62,0,0,1,8,3.48c-11.73-23.22-25.69-25.4-30.52-25.4Z" transform="translate(68.62)"/><path class="cls-108" d="M1318.42,299.37s7.24-5,21.25,7.56" transform="translate(68.62)"/></g><g id="Eth_Coin" data-name="Eth Coin"><circle class="cls-109" cx="1409.19" cy="729.76" r="21.12"/><circle class="cls-109" cx="1749.55" cy="1074.06" r="28.51"/><line class="cls-110" x1="1578.08" y1="599.01" x2="1578.08" y2="523.39"/><line class="cls-110" x1="1586.75" y1="594.28" x2="1586.75" y2="523.39"/><line class="cls-110" x1="1595.41" y1="591.54" x2="1595.41" y2="523.39"/><line class="cls-110" x1="1604.07" y1="590.48" x2="1604.07" y2="523.39"/><line class="cls-110" x1="1612.73" y1="591.54" x2="1612.73" y2="523.39"/><line class="cls-110" x1="1621.4" y1="594.28" x2="1621.4" y2="523.39"/><rect class="cls-111" x="1576.28" y="522.54" width="12.1" height="35.97"/><rect class="cls-111" x="1611.04" y="522.54" width="12.1" height="35.97"/><rect class="cls-111" x="1593.66" y="522.54" width="12.1" height="35.97"/><line class="cls-110" x1="1631.21" y1="599.01" x2="1631.21" y2="523.39"/><line class="cls-110" x1="1639.87" y1="594.28" x2="1639.87" y2="523.39"/><line class="cls-110" x1="1648.53" y1="591.54" x2="1648.53" y2="523.39"/><line class="cls-110" x1="1657.19" y1="590.48" x2="1657.19" y2="523.39"/><line class="cls-110" x1="1665.85" y1="591.54" x2="1665.85" y2="523.39"/><line class="cls-110" x1="1674.52" y1="594.28" x2="1674.52" y2="523.39"/><rect class="cls-111" x="1629.4" y="522.54" width="12.1" height="35.97"/><rect class="cls-111" x="1664.16" y="522.54" width="12.1" height="35.97"/><rect class="cls-111" x="1646.78" y="522.54" width="12.1" height="35.97"/><line class="cls-110" x1="1682.59" y1="591.54" x2="1682.59" y2="523.39"/><line class="cls-110" x1="1691.25" y1="594.28" x2="1691.25" y2="523.39"/><rect class="cls-111" x="1680.9" y="522.54" width="12.1" height="35.97"/><line class="cls-110" x1="1636.62" y1="431.58" x2="1636.62" y2="473.36"/><line class="cls-110" x1="1639.81" y1="473.3" x2="1639.81" y2="428.27"/><line class="cls-110" x1="1633.44" y1="473.36" x2="1633.44" y2="428.27"/><line class="cls-110" x1="1636.62" y1="281.06" x2="1636.62" y2="239.29"/><line class="cls-110" x1="1639.81" y1="239.35" x2="1639.81" y2="284.38"/><line class="cls-110" x1="1633.44" y1="239.29" x2="1633.44" y2="284.38"/><circle class="cls-110" cx="1636.47" cy="356.99" r="116.37"/><g id="Eth"><path class="cls-111" d="M1567.89,274.44l49.27,81.76-49.47,29.32-49.2-29.32,49.4-81.76m0-1.45-50.44,83.47,50.23,29.94,50.51-29.94L1567.9,273Z" transform="translate(68.62)"/><path class="cls-111" d="M1615.43,369l-47.6,67.15L1520.21,369l47.11,27.7.37.22.38-.22L1615.43,369m-97.86-2.41,50.26,70.85,50.23-70.85L1567.7,396l-50.13-29.47Z" transform="translate(68.62)"/><line class="cls-110" x1="1636.51" y1="277.07" x2="1636.31" y2="382.89"/><line class="cls-110" x1="1636.31" y1="396.02" x2="1636.45" y2="433.88"/><polyline class="cls-110" points="1589.87 356.43 1636.38 336.21 1685.11 356.43"/></g><path class="cls-110" d="M1511.13,528.94a181.05,181.05,0,0,1,56.73-353c100,0,181,81,181,181a181.1,181.1,0,0,1-126.24,172.58" transform="translate(68.62)"/><circle class="cls-110" cx="1636.47" cy="356.99" r="129.3"/><circle class="cls-110" cx="1636.47" cy="356.99" r="155.16"/><circle class="cls-112" cx="1636.47" cy="356.99" r="155.16"/><circle class="cls-110" cx="1636.47" cy="356.99" r="142.23"/></g><g id="Flag"><polygon class="cls-113" points="2491.33 1107.79 2504.8 1108.42 2471.97 536.09 2458.5 535.45 2491.33 1107.79"/><path class="cls-114" d="M2814.06,626.78c-15.29-9.28-39-26.64-57.71-15-10.72,6.7-16.44,21.51-23.12,31.64-21.17,32.07-48.26,38.25-84.6,40.5-16.25,1-33.77,1.37-49,7.84-18.66,7.92-30.93,24.84-44.77,38.92-38.77,39.42-80.28,63.11-133.41,34.62q-4.4-112.2-8.92-224.4c14.76,10.49,43.38,44.64,64.44,40.91,17.45-3.09,34.95-36.09,44.14-48.75,14.2-19.57,27.76-40.92,48.63-54,33.38-21,70.12-25,105.71-8,11,14.06,14.24,30.75,24.62,44.86,8.6,11.7,21.15,21,32.06,30.37C2761.13,571.3,2787.24,599.41,2814.06,626.78Z" transform="translate(68.62)"/><path class="cls-115" d="M2612.12,640.75a66.88,66.88,0,0,0,15.9,6c4.05,7.25,10.62,10,19.36,11.95h0c-17.2,5.91-33.89,8.17-51.95,9.88-16.77,1.46-80.68,11.52-76.88-17.52,2.5-19.11,16.41-37.36,21.32-56.91,2-7.85,3-15,5.06-21.26a4.55,4.55,0,0,0-.38-3.27,13.92,13.92,0,0,0-5-4.07c-1.26-.67-2-1.4-.41-3.51,1.45-1.91,2.79-2.43,4.14-1.68a14.25,14.25,0,0,1,3.28,2.24c.91.9,1.65.6,2.46-.75.14-.23.31-.44.43-.68,3.27-6.77,3.89-5.49-.56-8-1.2-.69-2.54-1.14-.85-3.53,1.53-2.17,2.65-2.73,4.59-1.73,1.1.56,2.05,1.87,3.25,1.81.87,0,2.14-2.08,3.21-3.26,5.56-6.19,11.76-11.26,18.53-12.63,2.74-.56,5.68,0,8.77.75,1.41.37,1.89,1.45,1.74,4.22-.38,7-.49,14.86-1,22.84-.57,5.19-1.27,10.42-2.15,15.57a185,185,0,0,1-3.86,19.13c5.34,8.16,7.91,21,5.75,30.56,4.53,2.89,9.15,5.72,13.91,8.35C2604.49,637.21,2608.3,639.1,2612.12,640.75Zm-62.38-61.15c-6.64,20.34-19,42.86-21.91,64-2.49,24.93,37.84,23.12,52.37,22.16,14-.87,28.07-2.2,41.81-5.23,1.7-.38,3.34-.81,5.24-1.35a16,16,0,0,1-4.32-2.66c-1.59-1.6-3.83-2.33-6.91-3-11.82-2.71-21.82-7.81-33-14a7.38,7.38,0,0,0-6.56-1,18.31,18.31,0,0,1-7.64.62c-10.83-1.59-14.56-12.81-12.58-22.34,1.88-9,5.45-22.38,14.94-26.63a3.27,3.27,0,0,0,2.32-2.16c3.48-13.66,5.1-27.76,6-41.84-.31-.22-.47-.39-.61-.41-12.7-1.42-21.5,13.3-25.59,23.69a7.2,7.2,0,0,0,0,3.42,76.33,76.33,0,0,1,2.82,16.87,9.29,9.29,0,0,1-1.7,6.55c-1.76,2.23-2.93,1.29-3-2.15A64,64,0,0,0,2549.74,579.6Zm27.5,34.28c-.87-5.67-4-9-7.11-7.54s-5.35,6.81-5,11.9,3.48,8.27,7.14,7.32S2578.11,619.51,2577.24,613.88Z" transform="translate(68.62)"/><path class="cls-116" d="M2585,577.15c.88-5.15,1.58-10.38,2.15-15.57,16.28,18.81,29.54,54,25,79.17-3.83-1.65-7.64-3.54-11.36-5.56.18-1.37.36-2.77.5-4.23C2602.41,613.58,2596.62,590.64,2585,577.15Z" transform="translate(68.62)"/><path class="cls-117" d="M2581.63,512c-.07,1-.16,2.05-.27,3.46-1.21.18-2.44.41-3.82.73.07-.93.14-2,.22-3.18C2578.94,512.71,2580.2,512.37,2581.63,512Z" transform="translate(68.62)"/><path class="cls-118" d="M2595.42,668.56c18.06-1.71,34.75-4,51.95-9.88a12.11,12.11,0,0,1-2.32,1.35c-14.52,5.5-30.14,6.9-45.52,8.34C2598.37,668.48,2596.8,668.5,2595.42,668.56Z" transform="translate(68.62)"/><path class="cls-119" d="M2647.38,658.68c-8.74-2-15.31-4.7-19.36-11.95.36.23.88.38,1,.65,3.36,5.81,9.91,8.87,17.76,10.81C2647.18,658.28,2647.19,658.52,2647.38,658.68Z" transform="translate(68.62)"/><path class="cls-120" d="M2549.74,579.6a64,64,0,0,1,1.69,14.52c.09,3.44,1.26,4.38,3,2.15a9.29,9.29,0,0,0,1.7-6.55,76.33,76.33,0,0,0-2.82-16.87,7.2,7.2,0,0,1,0-3.42c4.09-10.39,12.88-25.1,25.59-23.69.14,0,.3.19.61.41-.87,14.08-2.49,28.18-6,41.84a3.27,3.27,0,0,1-2.32,2.16c-9.49,4.25-13.06,17.6-14.94,26.63-2,9.53,1.75,20.75,12.58,22.34a18.31,18.31,0,0,0,7.64-.62,7.38,7.38,0,0,1,6.56,1c11.14,6.21,21.14,11.31,33,14,3.08.7,5.32,1.43,6.91,3a16,16,0,0,0,4.32,2.66c-1.9.54-3.54,1-5.24,1.35-13.74,3-27.79,4.36-41.81,5.23-14.53,1-54.86,2.77-52.37-22.16C2530.71,622.46,2543.1,599.94,2549.74,579.6Z" transform="translate(68.62)"/><path class="cls-121" d="M2585,577.15c11.65,13.49,17.44,36.43,16.3,53.81-.14,1.46-.32,2.86-.5,4.23-4.76-2.63-9.38-5.46-13.91-8.35,2.16-9.54-.41-22.4-5.75-30.56A185,185,0,0,0,2585,577.15Z" transform="translate(68.62)"/><path class="cls-122" d="M2577.24,613.88c.87,5.63-1.34,10.72-5,11.68s-6.83-2.19-7.14-7.32,1.93-10.41,5-11.9S2576.37,608.21,2577.24,613.88Z" transform="translate(68.62)"/></g></g></g></svg>